<mxfile host="app.diagrams.net" modified="2024-08-15T11:19:11.391Z" agent="Mozilla/5.0 (Windows NT 10.0; Win64; x64) AppleWebKit/537.36 (KHTML, like Gecko) Chrome/127.0.0.0 Safari/537.36" etag="mrVKHfBbDyXCot5XXN7o" version="24.7.0" type="github">
  <diagram name="Страница — 1" id="CvEb02JpHOaFwbCSghoo">
    <mxGraphModel dx="1122" dy="706" grid="1" gridSize="1" guides="1" tooltips="1" connect="1" arrows="1" fold="1" page="1" pageScale="1" pageWidth="1169" pageHeight="827" background="none" math="0" shadow="1">
      <root>
        <mxCell id="0" />
        <mxCell id="1" parent="0" />
        <mxCell id="CD_rBwM2UAqzej1J082F-1" value="" style="shape=process;whiteSpace=wrap;html=1;backgroundOutline=1;fillColor=#D6D6D6;" vertex="1" parent="1">
          <mxGeometry x="129" y="439" width="150" height="100" as="geometry" />
        </mxCell>
        <mxCell id="CD_rBwM2UAqzej1J082F-2" value="" style="ellipse;whiteSpace=wrap;html=1;aspect=fixed;" vertex="1" parent="1">
          <mxGeometry x="149" y="449" width="30" height="30" as="geometry" />
        </mxCell>
        <mxCell id="CD_rBwM2UAqzej1J082F-3" value="" style="ellipse;whiteSpace=wrap;html=1;aspect=fixed;" vertex="1" parent="1">
          <mxGeometry x="189" y="449" width="30" height="30" as="geometry" />
        </mxCell>
        <mxCell id="CD_rBwM2UAqzej1J082F-4" value="" style="ellipse;whiteSpace=wrap;html=1;aspect=fixed;" vertex="1" parent="1">
          <mxGeometry x="229" y="449" width="30" height="30" as="geometry" />
        </mxCell>
        <mxCell id="CD_rBwM2UAqzej1J082F-5" value="" style="rounded=1;whiteSpace=wrap;html=1;" vertex="1" parent="1">
          <mxGeometry x="189" y="489" width="30" height="40" as="geometry" />
        </mxCell>
        <mxCell id="CD_rBwM2UAqzej1J082F-6" value="" style="endArrow=classic;html=1;rounded=0;entryX=1;entryY=0.75;entryDx=0;entryDy=0;" edge="1" parent="1" source="CD_rBwM2UAqzej1J082F-64" target="CD_rBwM2UAqzej1J082F-5">
          <mxGeometry width="50" height="50" relative="1" as="geometry">
            <mxPoint x="887" y="519" as="sourcePoint" />
            <mxPoint x="559" y="489" as="targetPoint" />
          </mxGeometry>
        </mxCell>
        <mxCell id="CD_rBwM2UAqzej1J082F-7" value="" style="endArrow=classic;html=1;rounded=0;entryX=1;entryY=0.5;entryDx=0;entryDy=0;" edge="1" parent="1" source="CD_rBwM2UAqzej1J082F-67" target="CD_rBwM2UAqzej1J082F-5">
          <mxGeometry width="50" height="50" relative="1" as="geometry">
            <mxPoint x="877" y="509" as="sourcePoint" />
            <mxPoint x="559" y="489" as="targetPoint" />
          </mxGeometry>
        </mxCell>
        <mxCell id="CD_rBwM2UAqzej1J082F-8" value="" style="endArrow=classic;html=1;rounded=0;entryX=1;entryY=0.25;entryDx=0;entryDy=0;" edge="1" parent="1" target="CD_rBwM2UAqzej1J082F-32">
          <mxGeometry width="50" height="50" relative="1" as="geometry">
            <mxPoint x="917" y="319.74" as="sourcePoint" />
            <mxPoint x="837" y="319.74" as="targetPoint" />
          </mxGeometry>
        </mxCell>
        <mxCell id="CD_rBwM2UAqzej1J082F-9" value="" style="endArrow=classic;html=1;rounded=0;entryX=0.998;entryY=0.311;entryDx=0;entryDy=0;entryPerimeter=0;" edge="1" parent="1" target="CD_rBwM2UAqzej1J082F-32">
          <mxGeometry width="50" height="50" relative="1" as="geometry">
            <mxPoint x="917" y="329" as="sourcePoint" />
            <mxPoint x="838" y="329" as="targetPoint" />
          </mxGeometry>
        </mxCell>
        <mxCell id="CD_rBwM2UAqzej1J082F-10" value="" style="endArrow=none;html=1;rounded=0;" edge="1" parent="1">
          <mxGeometry width="50" height="50" relative="1" as="geometry">
            <mxPoint x="887" y="376" as="sourcePoint" />
            <mxPoint x="887" y="329" as="targetPoint" />
          </mxGeometry>
        </mxCell>
        <mxCell id="CD_rBwM2UAqzej1J082F-11" value="" style="endArrow=none;html=1;rounded=0;" edge="1" parent="1">
          <mxGeometry width="50" height="50" relative="1" as="geometry">
            <mxPoint x="877" y="376" as="sourcePoint" />
            <mxPoint x="877" y="320" as="targetPoint" />
          </mxGeometry>
        </mxCell>
        <mxCell id="CD_rBwM2UAqzej1J082F-12" value="" style="shape=cube;whiteSpace=wrap;html=1;boundedLbl=1;backgroundOutline=1;darkOpacity=0.05;darkOpacity2=0.1;" vertex="1" parent="1">
          <mxGeometry x="8" y="278" width="50" height="30" as="geometry" />
        </mxCell>
        <mxCell id="CD_rBwM2UAqzej1J082F-13" value="" style="shape=cube;whiteSpace=wrap;html=1;boundedLbl=1;backgroundOutline=1;darkOpacity=0.05;darkOpacity2=0.1;" vertex="1" parent="1">
          <mxGeometry x="68" y="278" width="50" height="30" as="geometry" />
        </mxCell>
        <mxCell id="CD_rBwM2UAqzej1J082F-15" value="" style="endArrow=none;html=1;rounded=0;exitX=0.333;exitY=0.333;exitDx=0;exitDy=0;exitPerimeter=0;entryX=0.333;entryY=0.667;entryDx=0;entryDy=0;entryPerimeter=0;elbow=vertical;" edge="1" parent="1" source="CD_rBwM2UAqzej1J082F-2" target="CD_rBwM2UAqzej1J082F-2">
          <mxGeometry width="50" height="50" relative="1" as="geometry">
            <mxPoint x="409" y="469" as="sourcePoint" />
            <mxPoint x="409" y="459" as="targetPoint" />
            <Array as="points" />
          </mxGeometry>
        </mxCell>
        <mxCell id="CD_rBwM2UAqzej1J082F-16" value="" style="endArrow=none;html=1;rounded=0;exitX=0.333;exitY=0.333;exitDx=0;exitDy=0;exitPerimeter=0;entryX=0.333;entryY=0.667;entryDx=0;entryDy=0;entryPerimeter=0;elbow=vertical;" edge="1" parent="1">
          <mxGeometry width="50" height="50" relative="1" as="geometry">
            <mxPoint x="169.01" y="459" as="sourcePoint" />
            <mxPoint x="169.01" y="469" as="targetPoint" />
            <Array as="points" />
          </mxGeometry>
        </mxCell>
        <mxCell id="CD_rBwM2UAqzej1J082F-17" value="" style="endArrow=none;html=1;rounded=0;exitX=0.333;exitY=0.333;exitDx=0;exitDy=0;exitPerimeter=0;entryX=0.333;entryY=0.667;entryDx=0;entryDy=0;entryPerimeter=0;elbow=vertical;" edge="1" parent="1">
          <mxGeometry width="50" height="50" relative="1" as="geometry">
            <mxPoint x="199" y="459" as="sourcePoint" />
            <mxPoint x="199" y="469" as="targetPoint" />
            <Array as="points" />
          </mxGeometry>
        </mxCell>
        <mxCell id="CD_rBwM2UAqzej1J082F-18" value="" style="endArrow=none;html=1;rounded=0;exitX=0.333;exitY=0.333;exitDx=0;exitDy=0;exitPerimeter=0;entryX=0.333;entryY=0.667;entryDx=0;entryDy=0;entryPerimeter=0;elbow=vertical;" edge="1" parent="1">
          <mxGeometry width="50" height="50" relative="1" as="geometry">
            <mxPoint x="209" y="459" as="sourcePoint" />
            <mxPoint x="209" y="469" as="targetPoint" />
            <Array as="points" />
          </mxGeometry>
        </mxCell>
        <mxCell id="CD_rBwM2UAqzej1J082F-19" value="" style="endArrow=none;html=1;rounded=0;exitX=0.333;exitY=0.333;exitDx=0;exitDy=0;exitPerimeter=0;entryX=0.333;entryY=0.667;entryDx=0;entryDy=0;entryPerimeter=0;elbow=vertical;" edge="1" parent="1">
          <mxGeometry width="50" height="50" relative="1" as="geometry">
            <mxPoint x="239" y="459" as="sourcePoint" />
            <mxPoint x="239" y="469" as="targetPoint" />
            <Array as="points" />
          </mxGeometry>
        </mxCell>
        <mxCell id="CD_rBwM2UAqzej1J082F-20" value="" style="endArrow=none;html=1;rounded=0;exitX=0.333;exitY=0.333;exitDx=0;exitDy=0;exitPerimeter=0;entryX=0.333;entryY=0.667;entryDx=0;entryDy=0;entryPerimeter=0;elbow=vertical;" edge="1" parent="1">
          <mxGeometry width="50" height="50" relative="1" as="geometry">
            <mxPoint x="249" y="459" as="sourcePoint" />
            <mxPoint x="249" y="469" as="targetPoint" />
            <Array as="points" />
          </mxGeometry>
        </mxCell>
        <mxCell id="CD_rBwM2UAqzej1J082F-21" value="" style="endArrow=none;html=1;rounded=0;exitX=0.333;exitY=0.333;exitDx=0;exitDy=0;exitPerimeter=0;entryX=0.333;entryY=0.667;entryDx=0;entryDy=0;entryPerimeter=0;elbow=vertical;" edge="1" parent="1">
          <mxGeometry width="50" height="50" relative="1" as="geometry">
            <mxPoint x="199" y="499" as="sourcePoint" />
            <mxPoint x="199" y="509" as="targetPoint" />
            <Array as="points" />
          </mxGeometry>
        </mxCell>
        <mxCell id="CD_rBwM2UAqzej1J082F-23" value="" style="endArrow=none;html=1;rounded=0;exitX=0.333;exitY=0.333;exitDx=0;exitDy=0;exitPerimeter=0;entryX=0.333;entryY=0.667;entryDx=0;entryDy=0;entryPerimeter=0;elbow=vertical;" edge="1" parent="1">
          <mxGeometry width="50" height="50" relative="1" as="geometry">
            <mxPoint x="209" y="499" as="sourcePoint" />
            <mxPoint x="209" y="509" as="targetPoint" />
            <Array as="points" />
          </mxGeometry>
        </mxCell>
        <mxCell id="CD_rBwM2UAqzej1J082F-25" value="" style="endArrow=none;html=1;rounded=0;exitX=0.333;exitY=0.333;exitDx=0;exitDy=0;exitPerimeter=0;elbow=vertical;" edge="1" parent="1">
          <mxGeometry width="50" height="50" relative="1" as="geometry">
            <mxPoint x="199" y="509" as="sourcePoint" />
            <mxPoint x="209" y="509" as="targetPoint" />
            <Array as="points" />
          </mxGeometry>
        </mxCell>
        <mxCell id="CD_rBwM2UAqzej1J082F-26" value="" style="endArrow=classic;html=1;rounded=0;" edge="1" parent="1">
          <mxGeometry width="50" height="50" relative="1" as="geometry">
            <mxPoint x="159" y="469" as="sourcePoint" />
            <mxPoint x="159" y="328" as="targetPoint" />
          </mxGeometry>
        </mxCell>
        <mxCell id="CD_rBwM2UAqzej1J082F-28" value="" style="endArrow=classic;html=1;rounded=0;" edge="1" parent="1">
          <mxGeometry width="50" height="50" relative="1" as="geometry">
            <mxPoint x="169" y="469" as="sourcePoint" />
            <mxPoint x="169" y="328" as="targetPoint" />
          </mxGeometry>
        </mxCell>
        <mxCell id="CD_rBwM2UAqzej1J082F-29" value="" style="endArrow=none;html=1;rounded=0;" edge="1" parent="1">
          <mxGeometry width="50" height="50" relative="1" as="geometry">
            <mxPoint x="48" y="328" as="sourcePoint" />
            <mxPoint x="169" y="328" as="targetPoint" />
          </mxGeometry>
        </mxCell>
        <mxCell id="CD_rBwM2UAqzej1J082F-30" value="" style="endArrow=classic;html=1;rounded=0;entryX=0;entryY=0;entryDx=35;entryDy=30;entryPerimeter=0;" edge="1" parent="1" target="CD_rBwM2UAqzej1J082F-13">
          <mxGeometry width="50" height="50" relative="1" as="geometry">
            <mxPoint x="108" y="328" as="sourcePoint" />
            <mxPoint x="108" y="308" as="targetPoint" />
          </mxGeometry>
        </mxCell>
        <mxCell id="CD_rBwM2UAqzej1J082F-31" value="" style="endArrow=classic;html=1;rounded=0;entryX=0;entryY=0;entryDx=35;entryDy=30;entryPerimeter=0;" edge="1" parent="1">
          <mxGeometry width="50" height="50" relative="1" as="geometry">
            <mxPoint x="48" y="328" as="sourcePoint" />
            <mxPoint x="43" y="308" as="targetPoint" />
          </mxGeometry>
        </mxCell>
        <mxCell id="CD_rBwM2UAqzej1J082F-32" value="" style="whiteSpace=wrap;html=1;aspect=fixed;gradientColor=none;fillColor=#D1D1D1;" vertex="1" parent="1">
          <mxGeometry x="559" y="279" width="160" height="160" as="geometry" />
        </mxCell>
        <mxCell id="CD_rBwM2UAqzej1J082F-33" value="" style="endArrow=classic;html=1;rounded=0;exitX=0.667;exitY=0.333;exitDx=0;exitDy=0;exitPerimeter=0;" edge="1" parent="1" source="CD_rBwM2UAqzej1J082F-4">
          <mxGeometry width="50" height="50" relative="1" as="geometry">
            <mxPoint x="529" y="369" as="sourcePoint" />
            <mxPoint x="249" y="329" as="targetPoint" />
          </mxGeometry>
        </mxCell>
        <mxCell id="CD_rBwM2UAqzej1J082F-34" value="" style="endArrow=classic;html=1;rounded=0;exitX=0.667;exitY=0.333;exitDx=0;exitDy=0;exitPerimeter=0;" edge="1" parent="1">
          <mxGeometry width="50" height="50" relative="1" as="geometry">
            <mxPoint x="238.99" y="459" as="sourcePoint" />
            <mxPoint x="239" y="319" as="targetPoint" />
          </mxGeometry>
        </mxCell>
        <mxCell id="CD_rBwM2UAqzej1J082F-35" value="" style="endArrow=classic;html=1;rounded=0;" edge="1" parent="1">
          <mxGeometry width="50" height="50" relative="1" as="geometry">
            <mxPoint x="239" y="319" as="sourcePoint" />
            <mxPoint x="559" y="320" as="targetPoint" />
          </mxGeometry>
        </mxCell>
        <mxCell id="CD_rBwM2UAqzej1J082F-36" value="" style="endArrow=classic;html=1;rounded=0;entryX=-0.001;entryY=0.312;entryDx=0;entryDy=0;entryPerimeter=0;" edge="1" parent="1" target="CD_rBwM2UAqzej1J082F-32">
          <mxGeometry width="50" height="50" relative="1" as="geometry">
            <mxPoint x="249" y="329" as="sourcePoint" />
            <mxPoint x="559" y="359" as="targetPoint" />
          </mxGeometry>
        </mxCell>
        <mxCell id="CD_rBwM2UAqzej1J082F-43" value="" style="html=1;shadow=0;dashed=0;align=center;verticalAlign=middle;shape=mxgraph.arrows2.bendDoubleArrow;dy=15;dx=38;arrowHead=55;rounded=0;rotation=0;" vertex="1" parent="1">
          <mxGeometry x="589" y="309" width="100" height="100" as="geometry" />
        </mxCell>
        <mxCell id="CD_rBwM2UAqzej1J082F-44" value="УЗО" style="swimlane;whiteSpace=wrap;html=1;" vertex="1" parent="1">
          <mxGeometry x="619" y="552" width="50" height="50" as="geometry" />
        </mxCell>
        <mxCell id="CD_rBwM2UAqzej1J082F-45" value="" style="endArrow=classic;html=1;rounded=0;" edge="1" parent="1">
          <mxGeometry width="50" height="50" relative="1" as="geometry">
            <mxPoint x="980" y="320" as="sourcePoint" />
            <mxPoint x="918" y="320" as="targetPoint" />
          </mxGeometry>
        </mxCell>
        <mxCell id="CD_rBwM2UAqzej1J082F-46" value="" style="endArrow=classic;html=1;rounded=0;" edge="1" parent="1">
          <mxGeometry width="50" height="50" relative="1" as="geometry">
            <mxPoint x="980" y="329" as="sourcePoint" />
            <mxPoint x="918" y="329" as="targetPoint" />
          </mxGeometry>
        </mxCell>
        <mxCell id="CD_rBwM2UAqzej1J082F-47" value="" style="ellipse;whiteSpace=wrap;html=1;aspect=fixed;" vertex="1" parent="1">
          <mxGeometry x="867.5" y="432" width="30" height="30" as="geometry" />
        </mxCell>
        <mxCell id="CD_rBwM2UAqzej1J082F-50" value="Автомат" style="swimlane;whiteSpace=wrap;html=1;" vertex="1" parent="1">
          <mxGeometry x="855" y="377" width="55" height="45" as="geometry" />
        </mxCell>
        <mxCell id="CD_rBwM2UAqzej1J082F-51" value="" style="endArrow=none;html=1;rounded=0;exitX=0.331;exitY=0.025;exitDx=0;exitDy=0;exitPerimeter=0;" edge="1" parent="1" source="CD_rBwM2UAqzej1J082F-47">
          <mxGeometry width="50" height="50" relative="1" as="geometry">
            <mxPoint x="877.5" y="432" as="sourcePoint" />
            <mxPoint x="877.5" y="422" as="targetPoint" />
          </mxGeometry>
        </mxCell>
        <mxCell id="CD_rBwM2UAqzej1J082F-52" value="" style="endArrow=none;html=1;rounded=0;exitX=0.664;exitY=0.036;exitDx=0;exitDy=0;exitPerimeter=0;" edge="1" parent="1" source="CD_rBwM2UAqzej1J082F-47">
          <mxGeometry width="50" height="50" relative="1" as="geometry">
            <mxPoint x="887.5" y="432" as="sourcePoint" />
            <mxPoint x="887.5" y="422" as="targetPoint" />
          </mxGeometry>
        </mxCell>
        <mxCell id="CD_rBwM2UAqzej1J082F-54" value="" style="endArrow=none;html=1;rounded=0;" edge="1" parent="1">
          <mxGeometry width="50" height="50" relative="1" as="geometry">
            <mxPoint x="877.5" y="452" as="sourcePoint" />
            <mxPoint x="877.5" y="442" as="targetPoint" />
          </mxGeometry>
        </mxCell>
        <mxCell id="CD_rBwM2UAqzej1J082F-55" value="" style="endArrow=none;html=1;rounded=0;" edge="1" parent="1">
          <mxGeometry width="50" height="50" relative="1" as="geometry">
            <mxPoint x="887.5" y="452" as="sourcePoint" />
            <mxPoint x="887.5" y="442" as="targetPoint" />
          </mxGeometry>
        </mxCell>
        <mxCell id="CD_rBwM2UAqzej1J082F-57" value="" style="endArrow=classic;html=1;rounded=0;exitX=0.331;exitY=0.974;exitDx=0;exitDy=0;exitPerimeter=0;" edge="1" parent="1" source="CD_rBwM2UAqzej1J082F-47">
          <mxGeometry width="50" height="50" relative="1" as="geometry">
            <mxPoint x="866" y="508" as="sourcePoint" />
            <mxPoint x="877" y="510" as="targetPoint" />
          </mxGeometry>
        </mxCell>
        <mxCell id="CD_rBwM2UAqzej1J082F-58" value="" style="endArrow=classic;html=1;rounded=0;exitX=0.658;exitY=0.978;exitDx=0;exitDy=0;exitPerimeter=0;" edge="1" parent="1" source="CD_rBwM2UAqzej1J082F-47">
          <mxGeometry width="50" height="50" relative="1" as="geometry">
            <mxPoint x="888.35" y="461" as="sourcePoint" />
            <mxPoint x="887" y="520" as="targetPoint" />
          </mxGeometry>
        </mxCell>
        <mxCell id="CD_rBwM2UAqzej1J082F-59" value="Автоматы на квартиру" style="swimlane;whiteSpace=wrap;html=1;" vertex="1" parent="1">
          <mxGeometry x="569" y="654" width="144" height="45" as="geometry" />
        </mxCell>
        <mxCell id="CD_rBwM2UAqzej1J082F-65" value="" style="endArrow=none;html=1;rounded=0;entryX=0.487;entryY=1.001;entryDx=0;entryDy=0;entryPerimeter=0;" edge="1" parent="1" target="CD_rBwM2UAqzej1J082F-64">
          <mxGeometry width="50" height="50" relative="1" as="geometry">
            <mxPoint x="639" y="552" as="sourcePoint" />
            <mxPoint x="639.0000000000001" y="438.7600000000001" as="targetPoint" />
          </mxGeometry>
        </mxCell>
        <mxCell id="CD_rBwM2UAqzej1J082F-64" value="" style="verticalLabelPosition=bottom;verticalAlign=top;html=1;shape=mxgraph.basic.arc;startAngle=0.4760676439328775;endAngle=0.019007703923974835;" vertex="1" parent="1">
          <mxGeometry x="637" y="517" width="4" height="4" as="geometry" />
        </mxCell>
        <mxCell id="CD_rBwM2UAqzej1J082F-67" value="" style="verticalLabelPosition=bottom;verticalAlign=top;html=1;shape=mxgraph.basic.arc;startAngle=0.4760676439328775;endAngle=0.019007703923974835;" vertex="1" parent="1">
          <mxGeometry x="637" y="507" width="4" height="4" as="geometry" />
        </mxCell>
        <mxCell id="CD_rBwM2UAqzej1J082F-69" value="" style="endArrow=none;html=1;rounded=0;exitX=0.5;exitY=0.048;exitDx=0;exitDy=0;exitPerimeter=0;" edge="1" parent="1" source="CD_rBwM2UAqzej1J082F-64">
          <mxGeometry width="50" height="50" relative="1" as="geometry">
            <mxPoint x="639" y="517" as="sourcePoint" />
            <mxPoint x="638.96" y="511" as="targetPoint" />
          </mxGeometry>
        </mxCell>
        <mxCell id="CD_rBwM2UAqzej1J082F-70" value="" style="endArrow=none;html=1;rounded=0;exitX=0.428;exitY=0.081;exitDx=0;exitDy=0;exitPerimeter=0;" edge="1" parent="1" source="CD_rBwM2UAqzej1J082F-67">
          <mxGeometry width="50" height="50" relative="1" as="geometry">
            <mxPoint x="618" y="521" as="sourcePoint" />
            <mxPoint x="638" y="439" as="targetPoint" />
          </mxGeometry>
        </mxCell>
        <mxCell id="CD_rBwM2UAqzej1J082F-76" value="" style="endArrow=none;html=1;rounded=0;entryX=0.487;entryY=1.001;entryDx=0;entryDy=0;entryPerimeter=0;" edge="1" target="CD_rBwM2UAqzej1J082F-77" parent="1">
          <mxGeometry width="50" height="50" relative="1" as="geometry">
            <mxPoint x="647" y="552" as="sourcePoint" />
            <mxPoint x="647.0000000000001" y="438.7600000000001" as="targetPoint" />
          </mxGeometry>
        </mxCell>
        <mxCell id="CD_rBwM2UAqzej1J082F-77" value="" style="verticalLabelPosition=bottom;verticalAlign=top;html=1;shape=mxgraph.basic.arc;startAngle=0.4760676439328775;endAngle=0.019007703923974835;" vertex="1" parent="1">
          <mxGeometry x="645" y="517" width="4" height="4" as="geometry" />
        </mxCell>
        <mxCell id="CD_rBwM2UAqzej1J082F-78" value="" style="verticalLabelPosition=bottom;verticalAlign=top;html=1;shape=mxgraph.basic.arc;startAngle=0.4760676439328775;endAngle=0.019007703923974835;" vertex="1" parent="1">
          <mxGeometry x="645" y="507" width="4" height="4" as="geometry" />
        </mxCell>
        <mxCell id="CD_rBwM2UAqzej1J082F-79" value="" style="endArrow=none;html=1;rounded=0;exitX=0.5;exitY=0.048;exitDx=0;exitDy=0;exitPerimeter=0;" edge="1" source="CD_rBwM2UAqzej1J082F-77" parent="1">
          <mxGeometry width="50" height="50" relative="1" as="geometry">
            <mxPoint x="647" y="517" as="sourcePoint" />
            <mxPoint x="646.96" y="511" as="targetPoint" />
          </mxGeometry>
        </mxCell>
        <mxCell id="CD_rBwM2UAqzej1J082F-80" value="" style="endArrow=none;html=1;rounded=0;exitX=0.428;exitY=0.081;exitDx=0;exitDy=0;exitPerimeter=0;" edge="1" source="CD_rBwM2UAqzej1J082F-78" parent="1">
          <mxGeometry width="50" height="50" relative="1" as="geometry">
            <mxPoint x="626" y="521" as="sourcePoint" />
            <mxPoint x="646" y="439" as="targetPoint" />
          </mxGeometry>
        </mxCell>
        <mxCell id="CD_rBwM2UAqzej1J082F-81" value="" style="endArrow=none;html=1;rounded=0;exitX=-0.083;exitY=0.5;exitDx=0;exitDy=0;exitPerimeter=0;" edge="1" parent="1" source="CD_rBwM2UAqzej1J082F-78">
          <mxGeometry width="50" height="50" relative="1" as="geometry">
            <mxPoint x="696" y="525" as="sourcePoint" />
            <mxPoint x="877" y="510" as="targetPoint" />
          </mxGeometry>
        </mxCell>
        <mxCell id="CD_rBwM2UAqzej1J082F-82" value="" style="endArrow=none;html=1;rounded=0;exitX=-0.083;exitY=0.5;exitDx=0;exitDy=0;exitPerimeter=0;" edge="1" parent="1">
          <mxGeometry width="50" height="50" relative="1" as="geometry">
            <mxPoint x="645.33" y="519" as="sourcePoint" />
            <mxPoint x="887" y="520" as="targetPoint" />
          </mxGeometry>
        </mxCell>
        <mxCell id="CD_rBwM2UAqzej1J082F-83" value="" style="endArrow=none;html=1;rounded=0;entryX=0.487;entryY=1.001;entryDx=0;entryDy=0;entryPerimeter=0;exitX=0.485;exitY=0.006;exitDx=0;exitDy=0;exitPerimeter=0;" edge="1" parent="1" source="CD_rBwM2UAqzej1J082F-59">
          <mxGeometry width="50" height="50" relative="1" as="geometry">
            <mxPoint x="639" y="653" as="sourcePoint" />
            <mxPoint x="639" y="602" as="targetPoint" />
          </mxGeometry>
        </mxCell>
        <mxCell id="CD_rBwM2UAqzej1J082F-84" value="" style="endArrow=none;html=1;rounded=0;entryX=0.487;entryY=1.001;entryDx=0;entryDy=0;entryPerimeter=0;exitX=0.542;exitY=0;exitDx=0;exitDy=0;exitPerimeter=0;" edge="1" parent="1" source="CD_rBwM2UAqzej1J082F-59">
          <mxGeometry width="50" height="50" relative="1" as="geometry">
            <mxPoint x="647" y="633" as="sourcePoint" />
            <mxPoint x="647" y="602" as="targetPoint" />
          </mxGeometry>
        </mxCell>
        <mxCell id="CD_rBwM2UAqzej1J082F-85" value="" style="endArrow=none;html=1;rounded=0;entryX=0.005;entryY=0.517;entryDx=0;entryDy=0;entryPerimeter=0;exitX=0.025;exitY=0.517;exitDx=0;exitDy=0;exitPerimeter=0;" edge="1" parent="1" source="CD_rBwM2UAqzej1J082F-67" target="CD_rBwM2UAqzej1J082F-78">
          <mxGeometry width="50" height="50" relative="1" as="geometry">
            <mxPoint x="615" y="544" as="sourcePoint" />
            <mxPoint x="665" y="494" as="targetPoint" />
          </mxGeometry>
        </mxCell>
        <mxCell id="CD_rBwM2UAqzej1J082F-86" value="" style="endArrow=none;html=1;rounded=0;entryX=0.005;entryY=0.517;entryDx=0;entryDy=0;entryPerimeter=0;exitX=0.025;exitY=0.517;exitDx=0;exitDy=0;exitPerimeter=0;" edge="1" parent="1">
          <mxGeometry width="50" height="50" relative="1" as="geometry">
            <mxPoint x="637" y="518.98" as="sourcePoint" />
            <mxPoint x="645" y="518.98" as="targetPoint" />
          </mxGeometry>
        </mxCell>
        <mxCell id="CD_rBwM2UAqzej1J082F-87" value="Домовая сеть" style="text;html=1;align=center;verticalAlign=middle;resizable=0;points=[];autosize=1;strokeColor=none;fillColor=none;" vertex="1" parent="1">
          <mxGeometry x="929" y="285" width="96" height="27" as="geometry" />
        </mxCell>
        <mxCell id="CD_rBwM2UAqzej1J082F-88" value="АВР" style="text;html=1;align=center;verticalAlign=middle;resizable=0;points=[];autosize=1;strokeColor=none;fillColor=none;" vertex="1" parent="1">
          <mxGeometry x="612" y="280" width="43" height="27" as="geometry" />
        </mxCell>
        <mxCell id="CD_rBwM2UAqzej1J082F-89" value="Зарядная станция" style="text;html=1;align=center;verticalAlign=middle;resizable=0;points=[];autosize=1;strokeColor=none;fillColor=none;" vertex="1" parent="1">
          <mxGeometry x="144" y="539" width="121" height="27" as="geometry" />
        </mxCell>
      </root>
    </mxGraphModel>
  </diagram>
</mxfile>
